<?xml version="1.0" encoding="UTF-8"?>
<svg id="Layer_1" xmlns="http://www.w3.org/2000/svg" version="1.1" viewBox="0 0 24 24">
  <!-- Generator: Adobe Illustrator 29.8.2, SVG Export Plug-In . SVG Version: 2.1.1 Build 3)  -->
  <defs>
    <style>
      .st0 {
        fill: #663fff;
      }
    </style>
  </defs>
  <path class="st0" d="M24,4v14c0,2.21-1.79,4-4,4h-2.02c.84-2.51,2.02-6.89,2.01-11.64v-1.85c.27.13.54.24.83.32.59.16,1.18-.27,1.18-.88h0c0-.48-.29-.93-.74-1.08-.33-.1-.63-.28-.89-.5-.3-.26-.67-.38-1.04-.38s-.74.13-1.04.38c-.45.39-1.02.62-1.63.62s-1.18-.23-1.63-.62c-.3-.26-.67-.38-1.04-.38s-.74.13-1.04.38c-.45.39-1.02.62-1.63.62s-1.18-.23-1.63-.62c-.3-.26-.67-.38-1.04-.38s-.74.13-1.04.38h-.01c-.64.55-1.62.08-1.62-.76v-1.63c0-2.21,1.79-4,4-4h10c2.21,0,4,1.79,4,4ZM18,10.46c0,4.14-.98,8.03-1.8,10.57-.57,1.78-2.22,2.98-4.1,2.98H3.32c-1.12,0-2.21-.58-2.84-1.52-.58-.86-.69-1.9-.31-2.83.82-2.01,2.36-5.76,2.41-9.17,0-.29.13-.56.35-.75.48-.4,1.22-.73,1.81-.74.62-.01,1.24.2,1.75.62.61.5,1.48.5,2.09,0,.99-.82,2.43-.82,3.42,0,.61.5,1.48.5,2.09,0,.51-.42,1.14-.63,1.77-.61.59.01,1.26.28,1.74.68.25.18.4.46.41.77h0s0,.01,0,.01ZM10.48,13.12c-.37-.2-.83-.15-1.15.14l-1.5,1.35c-.41.37-.45,1-.08,1.41.24.27.59.37.92.32-.17,1.23-.38,2.57-.65,3.35-.18.52.11,1.09.63,1.26.1.03.21.05.32.05.42,0,.81-.26.95-.68.4-1.2,1-5.78,1.06-6.16.07-.42-.14-.83-.51-1.03h0Z"/>
</svg>